<svg width="551" height="519" viewBox="0 0 551 519" fill="none" xmlns="http://www.w3.org/2000/svg">
<path d="M238.24 278C229.74 332.5 245.74 393.5 245.74 393.5C245.74 393.5 235.581 401.468 231.74 408.5C227.515 416.232 226.74 430.5 226.74 430.5V517H37.2395C37.2395 517 18.6308 518 6.2395 499C-6.15182 480 3.7395 459 3.7395 459L68.2395 331H205.24C209.74 354.5 229.74 379 229.74 379C229.74 379 219.74 347 226.24 278C232.74 209 274.24 172 274.24 172C274.24 172 246.74 223.5 238.24 278Z" fill="black"/>
<path d="M324.24 430.5V517L501.24 519C501.24 519 521.662 516.854 531.74 509.5C540.983 502.755 546.329 497.066 549.24 486C551.678 476.73 548.425 467.5 546.74 463.5C545.054 459.5 536.74 442 536.74 442L480.24 331L329.24 330.5L333.24 325L338.74 316L472.74 314.5L420.74 216H356.74L357.24 205.5L356.74 199H414.74L333.74 48.5C333.74 48.5 309.24 1.53901e-05 274.24 0C239.24 -1.53901e-05 214.24 48.5 214.24 48.5L135.24 199H209.24C209.24 199 234.74 138.5 254.74 114C274.74 89.5 295.74 77 319.74 84C343.74 91 343.74 131 343.74 131C343.74 131 342.863 174.782 326.74 195C315.559 209.02 289.24 221.5 289.24 221.5C289.24 221.5 309.921 219.477 321.74 214C332.161 209.171 345.74 197 345.74 197C345.74 197 349.401 222.094 345.74 237.5C341.394 255.786 333.464 265.159 319.74 278C304.499 292.26 272.24 302.5 272.24 302.5C272.24 302.5 291.49 301.404 303.24 298C317.165 293.966 336.74 282 336.74 282C336.74 282 332.74 315.5 312.24 331C291.74 346.5 298.44 341.372 289.24 347.5C281.574 352.606 273.74 356.5 269.24 360C264.74 363.5 259.24 366.5 256.74 370C254.24 373.5 253.74 374 254.24 379C254.74 384 256.74 387 256.74 387C256.74 387 269.24 383.301 279.24 384C292.24 384.909 301.857 390 306.24 393.5C310.622 397 315.981 402.657 319.74 411C323.268 418.833 324.24 430.5 324.24 430.5Z" fill="black"/>
</svg>
